<svg width="78" height="78" viewBox="0 0 78 78" fill="none" xmlns="http://www.w3.org/2000/svg">
<path d="M58.6875 19.3125V19.3563M4 21.5C4 16.8587 5.84374 12.4075 9.12563 9.12563C12.4075 5.84374 16.8587 4 21.5 4H56.5C61.1413 4 65.5925 5.84374 68.8744 9.12563C72.1563 12.4075 74 16.8587 74 21.5V56.5C74 61.1413 72.1563 65.5925 68.8744 68.8744C65.5925 72.1563 61.1413 74 56.5 74H21.5C16.8587 74 12.4075 72.1563 9.12563 68.8744C5.84374 65.5925 4 61.1413 4 56.5V21.5ZM25.875 39C25.875 42.481 27.2578 45.8194 29.7192 48.2808C32.1806 50.7422 35.519 52.125 39 52.125C42.481 52.125 45.8194 50.7422 48.2808 48.2808C50.7422 45.8194 52.125 42.481 52.125 39C52.125 35.519 50.7422 32.1806 48.2808 29.7192C45.8194 27.2578 42.481 25.875 39 25.875C35.519 25.875 32.1806 27.2578 29.7192 29.7192C27.2578 32.1806 25.875 35.519 25.875 39Z" stroke="#DCD7C9" stroke-width="7" stroke-linecap="round" stroke-linejoin="round"/>
</svg>
