<svg width="489" height="211" viewBox="0 0 489 211" fill="none" xmlns="http://www.w3.org/2000/svg">
<path d="M408 168.481L446.019 130L484 168.519H462.347L445.981 151.993L429.653 168.519L446.019 185.045V168.519H462.347V190.666L446.019 207L408 168.481Z" fill="#DCD7C9"/>
<path d="M450.275 58.3575L446.79 47.0822M446.79 47.0822L443.874 37.6557C441.498 29.9802 440.313 26.1468 438.196 26.1468C436.084 26.1468 434.894 29.9802 432.523 37.6557L429.603 47.0822M446.79 47.0822H429.603M426.118 58.3532L429.603 47.0822M462.353 58.3532V38.2253M462.353 28.157V26.1468M408 42.25C408 24.2173 408 15.203 413.601 9.6015C419.203 4 428.222 4 446.25 4C464.278 4 473.297 4 478.898 9.6015C484.5 15.203 484.5 24.2215 484.5 42.25C484.5 60.2785 484.5 69.297 478.898 74.8985C473.297 80.5 464.278 80.5 446.25 80.5C428.222 80.5 419.203 80.5 413.601 74.8985C408 69.297 408 60.2785 408 42.25Z" stroke="#DCD7C9" stroke-width="8" stroke-linecap="round" stroke-linejoin="round"/>
<path d="M256.5 156C259.815 156 262.995 157.317 265.339 159.661C267.683 162.005 269 165.185 269 168.5C269 171.815 267.683 174.995 265.339 177.339C262.995 179.683 259.815 181 256.5 181C253.185 181 250.005 179.683 247.661 177.339C245.317 174.995 244 171.815 244 168.5C244 165.185 245.317 162.005 247.661 159.661C250.005 157.317 253.185 156 256.5 156ZM256.5 156C259.815 156 262.995 154.683 265.339 152.339C267.683 149.995 269 146.815 269 143.5C269 140.185 267.683 137.005 265.339 134.661C262.995 132.317 259.815 131 256.5 131H231.5C228.185 131 225.005 132.317 222.661 134.661C220.317 137.005 219 140.185 219 143.5C219 146.815 220.317 149.995 222.661 152.339C225.005 154.683 228.185 156 231.5 156M256.5 156H231.5M231.5 156C228.185 156 225.005 157.317 222.661 159.661C220.317 162.005 219 165.185 219 168.5C219 171.815 220.317 174.995 222.661 177.339C225.005 179.683 228.185 181 231.5 181M231.5 181H244M231.5 181C229.028 181 226.611 181.733 224.555 183.107C222.5 184.48 220.898 186.432 219.952 188.716C219.005 191.001 218.758 193.514 219.24 195.939C219.723 198.363 220.913 200.591 222.661 202.339C224.409 204.087 226.637 205.277 229.061 205.76C231.486 206.242 233.999 205.995 236.284 205.048C238.568 204.102 240.52 202.5 241.893 200.445C243.267 198.389 244 195.972 244 193.5V131" stroke="#DCD7C9" stroke-width="8" stroke-linecap="round" stroke-linejoin="round"/>
<path d="M224.118 58.8904V42.625M224.118 42.625V28.6857C224.118 27.248 225.061 26.3639 226.421 26.3639H232.171C233.244 26.339 234.311 26.5309 235.31 26.9283C236.308 27.3257 237.218 27.9206 237.986 28.6781C238.753 29.4355 239.363 30.3403 239.779 31.3391C240.196 32.3379 240.41 33.4107 240.41 34.4944C240.41 35.5782 240.196 36.651 239.779 37.6498C239.363 38.6486 238.753 39.5533 237.986 40.3108C237.218 41.0683 236.308 41.6632 235.31 42.0606C234.311 42.458 233.244 42.6499 232.171 42.625H224.118ZM252.304 36.5265V44.6592M252.304 44.6592V58.8861M252.304 44.6592C254.561 41.6165 256.664 37.8269 260.353 36.7969C260.977 36.6195 261.648 36.5294 262.368 36.5265M206 42.625C206 24.4155 206 15.3128 211.601 9.65642C217.203 4 226.222 4 244.25 4C262.278 4 271.297 4 276.898 9.65642C282.5 15.3128 282.5 24.4198 282.5 42.625C282.5 60.8302 282.5 69.9372 276.898 75.5936C271.297 81.25 262.278 81.25 244.25 81.25C226.222 81.25 217.203 81.25 211.601 75.5936C206 69.9372 206 60.8302 206 42.625Z" stroke="#DCD7C9" stroke-width="8" stroke-linecap="round" stroke-linejoin="round"/>
<path d="M42.25 184.357L38.765 173.082M18.093 184.353L21.578 173.082M21.578 173.082L24.4935 163.656C26.8692 155.98 28.055 152.147 30.1715 152.147C32.288 152.147 33.4738 155.98 35.8453 163.656L38.7607 173.082H21.578ZM50.3038 171.752V176.299C50.3026 178.076 50.8886 179.802 51.9706 181.211C53.0527 182.62 54.57 183.631 56.2865 184.088C58.0029 184.545 59.8222 184.421 61.4612 183.737C63.1002 183.052 64.467 181.845 65.3488 180.303M50.3038 171.752V168.25C50.3038 167.192 50.5121 166.145 50.9168 165.168C51.3215 164.191 51.9148 163.303 52.6626 162.555C53.4105 161.807 54.2983 161.214 55.2755 160.809C56.2526 160.405 57.2999 160.196 58.3575 160.196C59.4151 160.196 60.4624 160.405 61.4395 160.809C62.4167 161.214 63.3045 161.807 64.0524 162.555C64.8002 163.303 65.3935 164.191 65.7982 165.168C66.2029 166.145 66.4113 167.192 66.4113 168.25V171.752H50.3038ZM4 168.25C4 150.217 4 141.203 9.6015 135.601C15.203 130 24.2215 130 42.25 130C60.2785 130 69.297 130 74.8985 135.601C80.5 141.203 80.5 150.222 80.5 168.25C80.5 186.278 80.5 195.297 74.8985 200.898C69.297 206.5 60.2785 206.5 42.25 206.5C24.2215 206.5 15.203 206.5 9.6015 200.898C4 195.297 4 186.278 4 168.25Z" stroke="#DCD7C9" stroke-width="8" stroke-linecap="round" stroke-linejoin="round"/>
<path d="M20.1075 58.8904V42.625M20.1075 42.625V30.9345C20.1075 30.4624 20.1075 30.2264 20.1245 30.029C20.3115 28.0977 21.8245 26.5699 23.737 26.381C23.9325 26.3639 24.1663 26.3639 24.6338 26.3639H30.1715C31.2444 26.339 32.3114 26.5309 33.3099 26.9283C34.3083 27.3257 35.218 27.9206 35.9856 28.6781C36.7531 29.4355 37.363 30.3403 37.7794 31.3391C38.1958 32.3379 38.4102 33.4107 38.4102 34.4944C38.4102 35.5782 38.1958 36.651 37.7794 37.6498C37.363 38.6486 36.7531 39.5533 35.9856 40.3108C35.218 41.0683 34.3083 41.6632 33.3099 42.0606C32.3114 42.458 31.2444 42.6499 30.1715 42.625H20.1075ZM64.2565 39.462C63.5595 36.6338 60.2828 34.4923 56.343 34.4923C51.8933 34.4923 48.2892 37.2261 48.2892 40.5907C48.2892 43.9597 51.8933 46.6892 56.343 46.6892C60.7885 46.6892 64.3968 49.423 64.3968 52.7877C64.3968 56.1566 60.7885 58.8861 56.343 58.8861C52.3905 58.8861 49.101 56.7317 48.421 53.8863M4 42.625C4 24.4155 4 15.3128 9.6015 9.65642C15.203 4 24.2215 4 42.25 4C60.2785 4 69.297 4 74.8985 9.65642C80.5 15.3128 80.5 24.4198 80.5 42.625C80.5 60.8302 80.5 69.9372 74.8985 75.5936C69.297 81.25 60.2785 81.25 42.25 81.25C24.2215 81.25 15.203 81.25 9.6015 75.5936C4 69.9372 4 60.8302 4 42.625Z" stroke="#DCD7C9" stroke-width="8" stroke-linecap="round" stroke-linejoin="round"/>
</svg>
