<svg width="910" height="86" viewBox="0 0 910 86" fill="none" xmlns="http://www.w3.org/2000/svg">
<path d="M726.5 30C729.815 30 732.995 31.317 735.339 33.6612C737.683 36.0054 739 39.1848 739 42.5C739 45.8152 737.683 48.9946 735.339 51.3388C732.995 53.683 729.815 55 726.5 55C723.185 55 720.005 53.683 717.661 51.3388C715.317 48.9946 714 45.8152 714 42.5C714 39.1848 715.317 36.0054 717.661 33.6612C720.005 31.317 723.185 30 726.5 30ZM726.5 30C729.815 30 732.995 28.683 735.339 26.3388C737.683 23.9946 739 20.8152 739 17.5C739 14.1848 737.683 11.0054 735.339 8.66117C732.995 6.31696 729.815 5 726.5 5H701.5C698.185 5 695.005 6.31696 692.661 8.66117C690.317 11.0054 689 14.1848 689 17.5C689 20.8152 690.317 23.9946 692.661 26.3388C695.005 28.683 698.185 30 701.5 30M726.5 30H701.5M701.5 30C698.185 30 695.005 31.317 692.661 33.6612C690.317 36.0054 689 39.1848 689 42.5C689 45.8152 690.317 48.9946 692.661 51.3388C695.005 53.683 698.185 55 701.5 55M701.5 55H714M701.5 55C699.028 55 696.611 55.7331 694.555 57.1066C692.5 58.4801 690.898 60.4324 689.952 62.7164C689.005 65.0005 688.758 67.5139 689.24 69.9386C689.723 72.3634 690.913 74.5907 692.661 76.3388C694.409 78.087 696.637 79.2775 699.061 79.7598C701.486 80.2421 703.999 79.9946 706.284 79.0485C708.568 78.1024 710.52 76.5002 711.893 74.4446C713.267 72.389 714 69.9723 714 67.5V5" stroke="#DCD7C9" stroke-width="8" stroke-linecap="round" stroke-linejoin="round"/>
<path d="M834 42.4808L872.019 4L910 42.5192H888.347L871.981 25.9931L855.653 42.5192L872.019 59.0454V42.5192H888.347V64.6664L872.019 81L834 42.4808Z" fill="#DCD7C9"/>
<path d="M389.275 58.3575L385.79 47.0822M385.79 47.0822L382.874 37.6557C380.498 29.9802 379.313 26.1468 377.196 26.1468C375.084 26.1468 373.894 29.9802 371.523 37.6557L368.603 47.0822M385.79 47.0822H368.603M365.118 58.3532L368.603 47.0822M401.353 58.3532V38.2253M401.353 28.157V26.1468M347 42.25C347 24.2173 347 15.203 352.601 9.6015C358.203 4 367.222 4 385.25 4C403.278 4 412.297 4 417.898 9.6015C423.5 15.203 423.5 24.2215 423.5 42.25C423.5 60.2785 423.5 69.297 417.898 74.8985C412.297 80.5 403.278 80.5 385.25 80.5C367.222 80.5 358.203 80.5 352.601 74.8985C347 69.297 347 60.2785 347 42.25Z" stroke="#DCD7C9" stroke-width="8" stroke-linecap="round" stroke-linejoin="round"/>
<path d="M556.25 58.3575L552.765 47.0822M532.093 58.3532L535.578 47.0822M535.578 47.0822L538.493 37.6557C540.869 29.9802 542.055 26.1468 544.172 26.1468C546.288 26.1468 547.474 29.9802 549.845 37.6557L552.761 47.0822H535.578ZM564.304 45.752V50.2995C564.303 52.0757 564.889 53.8025 565.971 55.211C567.053 56.6196 568.57 57.631 570.286 58.0877C572.003 58.5445 573.822 58.421 575.461 57.7365C577.1 57.052 578.467 55.8449 579.349 54.303M564.304 45.752V42.25C564.304 41.1924 564.512 40.1451 564.917 39.168C565.322 38.1908 565.915 37.303 566.663 36.5551C567.41 35.8073 568.298 35.214 569.275 34.8093C570.253 34.4046 571.3 34.1962 572.358 34.1962C573.415 34.1962 574.462 34.4046 575.44 34.8093C576.417 35.214 577.305 35.8073 578.052 36.5551C578.8 37.303 579.393 38.1908 579.798 39.168C580.203 40.1451 580.411 41.1924 580.411 42.25V45.752H564.304ZM518 42.25C518 24.2173 518 15.203 523.601 9.6015C529.203 4 538.222 4 556.25 4C574.278 4 583.297 4 588.898 9.6015C594.5 15.203 594.5 24.2215 594.5 42.25C594.5 60.2785 594.5 69.297 588.898 74.8985C583.297 80.5 574.278 80.5 556.25 80.5C538.222 80.5 529.203 80.5 523.601 74.8985C518 69.297 518 60.2785 518 42.25Z" stroke="#DCD7C9" stroke-width="8" stroke-linecap="round" stroke-linejoin="round"/>
<path d="M194.118 58.8904V42.625M194.118 42.625V28.6857C194.118 27.248 195.061 26.3639 196.421 26.3639H202.171C203.244 26.339 204.311 26.5309 205.31 26.9283C206.308 27.3257 207.218 27.9206 207.986 28.6781C208.753 29.4355 209.363 30.3403 209.779 31.3391C210.196 32.3379 210.41 33.4107 210.41 34.4944C210.41 35.5782 210.196 36.651 209.779 37.6498C209.363 38.6486 208.753 39.5533 207.986 40.3108C207.218 41.0683 206.308 41.6632 205.31 42.0606C204.311 42.458 203.244 42.6499 202.171 42.625H194.118ZM222.304 36.5265V44.6592M222.304 44.6592V58.8861M222.304 44.6592C224.561 41.6165 226.664 37.8269 230.353 36.7969C230.977 36.6195 231.648 36.5294 232.368 36.5265M176 42.625C176 24.4155 176 15.3128 181.601 9.65642C187.203 4 196.222 4 214.25 4C232.278 4 241.297 4 246.898 9.65642C252.5 15.3128 252.5 24.4198 252.5 42.625C252.5 60.8302 252.5 69.9372 246.898 75.5936C241.297 81.25 232.278 81.25 214.25 81.25C196.222 81.25 187.203 81.25 181.601 75.5936C176 69.9372 176 60.8302 176 42.625Z" stroke="#DCD7C9" stroke-width="8" stroke-linecap="round" stroke-linejoin="round"/>
<path d="M20.1075 58.8904V42.625M20.1075 42.625V30.9345C20.1075 30.4624 20.1075 30.2264 20.1245 30.029C20.3115 28.0977 21.8245 26.5699 23.737 26.381C23.9325 26.3639 24.1663 26.3639 24.6338 26.3639H30.1715C31.2444 26.339 32.3114 26.5309 33.3099 26.9283C34.3083 27.3257 35.218 27.9206 35.9856 28.6781C36.7531 29.4355 37.363 30.3403 37.7794 31.3391C38.1958 32.3379 38.4102 33.4107 38.4102 34.4944C38.4102 35.5782 38.1958 36.651 37.7794 37.6498C37.363 38.6486 36.7531 39.5533 35.9856 40.3108C35.218 41.0683 34.3083 41.6632 33.3099 42.0606C32.3114 42.458 31.2444 42.6499 30.1715 42.625H20.1075ZM64.2565 39.462C63.5595 36.6338 60.2828 34.4923 56.343 34.4923C51.8933 34.4923 48.2892 37.2261 48.2892 40.5907C48.2892 43.9597 51.8933 46.6892 56.343 46.6892C60.7885 46.6892 64.3968 49.423 64.3968 52.7877C64.3968 56.1566 60.7885 58.8861 56.343 58.8861C52.3905 58.8861 49.101 56.7317 48.421 53.8863M4 42.625C4 24.4155 4 15.3128 9.6015 9.65642C15.203 4 24.2215 4 42.25 4C60.2785 4 69.297 4 74.8985 9.65642C80.5 15.3128 80.5 24.4198 80.5 42.625C80.5 60.8302 80.5 69.9372 74.8985 75.5936C69.297 81.25 60.2785 81.25 42.25 81.25C24.2215 81.25 15.203 81.25 9.6015 75.5936C4 69.9372 4 60.8302 4 42.625Z" stroke="#DCD7C9" stroke-width="8" stroke-linecap="round" stroke-linejoin="round"/>
</svg>
