<svg width="1440" height="291" viewBox="0 0 1440 291" fill="none" xmlns="http://www.w3.org/2000/svg">
<path d="M701.315 18.2914C712.662 -6.09722 747.338 -6.09721 758.685 18.2914V18.2914C769.388 41.2945 801.455 42.975 814.504 21.2168V21.2168C828.338 -1.85213 862.824 1.77242 871.56 27.2136V27.2136C879.8 51.2094 911.515 56.2326 926.767 35.9575V35.9575C942.937 14.4611 976.855 21.6705 982.883 47.8855V47.8855C988.57 72.6111 1019.59 80.922 1036.87 62.3522V62.3522C1055.2 42.6638 1088.18 53.379 1091.44 80.0807V80.0807C1094.51 105.265 1124.49 116.773 1143.62 100.112V100.112C1163.91 82.4469 1195.58 96.5507 1196.03 123.446V123.446C1196.45 148.814 1225.06 163.392 1245.83 148.822V148.822C1267.85 133.375 1297.88 150.712 1295.52 177.507V177.507C1293.28 202.78 1320.21 220.269 1342.39 207.95V207.95C1365.91 194.889 1393.96 215.271 1388.81 241.671V241.671C1383.95 266.572 1408.9 286.78 1432.25 276.847V276.847C1457 266.316 1482.77 289.518 1474.88 315.236V315.236C1467.44 339.492 1490.15 362.198 1514.4 354.759V354.759C1540.12 346.873 1563.32 372.642 1552.79 397.394V397.394C1542.86 420.74 1563.07 445.694 1587.97 440.833V440.833C1614.37 435.678 1634.75 463.731 1621.69 487.246V487.246C1609.37 509.426 1626.86 536.356 1652.13 534.124V534.124C1678.93 531.757 1696.27 561.786 1680.82 583.808V583.808C1666.25 604.579 1680.83 633.189 1706.19 633.611V633.611C1733.09 634.058 1747.19 665.735 1729.53 686.021V686.021C1712.87 705.155 1724.38 735.133 1749.56 738.204V738.204C1776.26 741.46 1786.98 774.438 1767.29 792.767V792.767C1748.72 810.054 1757.03 841.07 1781.75 846.757V846.757C1807.97 852.786 1815.18 886.703 1793.68 902.874V902.874C1773.41 918.125 1778.43 949.841 1802.43 958.08V958.08C1827.87 966.817 1831.49 1001.3 1808.42 1015.14V1015.14C1786.67 1028.19 1788.35 1060.25 1811.35 1070.96V1070.96C1835.74 1082.3 1835.74 1116.98 1811.35 1128.33V1128.33C1788.35 1139.03 1786.67 1171.1 1808.42 1184.14V1184.14C1831.49 1197.98 1827.87 1232.46 1802.43 1241.2V1241.2C1778.43 1249.44 1773.41 1281.16 1793.68 1296.41V1296.41C1815.18 1312.58 1807.97 1346.49 1781.75 1352.52V1352.52C1757.03 1358.21 1748.72 1389.23 1767.29 1406.51V1406.51C1786.98 1424.84 1776.26 1457.82 1749.56 1461.08V1461.08C1724.38 1464.15 1712.87 1494.13 1729.53 1513.26V1513.26C1747.19 1533.55 1733.09 1565.22 1706.19 1565.67V1565.67C1680.83 1566.09 1666.25 1594.7 1680.82 1615.47V1615.47C1696.27 1637.49 1678.93 1667.52 1652.13 1665.16V1665.16C1626.86 1662.92 1609.37 1689.85 1621.69 1712.03V1712.03C1634.75 1735.55 1614.37 1763.6 1587.97 1758.45V1758.45C1563.07 1753.59 1542.86 1778.54 1552.79 1801.89V1801.89C1563.32 1826.64 1540.12 1852.41 1514.4 1844.52V1844.52C1490.15 1837.08 1467.44 1859.79 1474.88 1884.05V1884.05C1482.77 1909.76 1457 1932.96 1432.25 1922.43V1922.43C1408.9 1912.5 1383.95 1932.71 1388.81 1957.61V1957.61C1393.96 1984.01 1365.91 2004.39 1342.39 1991.33V1991.33C1320.21 1979.01 1293.28 1996.5 1295.52 2021.77V2021.77C1297.88 2048.57 1267.85 2065.91 1245.83 2050.46V2050.46C1225.06 2035.89 1196.45 2050.47 1196.03 2075.83V2075.83C1195.58 2102.73 1163.91 2116.83 1143.62 2099.17V2099.17C1124.49 2082.51 1094.51 2094.02 1091.44 2119.2V2119.2C1088.18 2145.9 1055.2 2156.62 1036.87 2136.93V2136.93C1019.59 2118.36 988.57 2126.67 982.883 2151.4V2151.4C976.855 2177.61 942.937 2184.82 926.767 2163.32V2163.32C911.515 2143.05 879.8 2148.07 871.56 2172.07V2172.07C862.824 2197.51 828.338 2201.13 814.504 2178.06V2178.06C801.455 2156.31 769.388 2157.99 758.685 2180.99V2180.99C747.338 2205.38 712.662 2205.38 701.315 2180.99V2180.99C690.612 2157.99 658.545 2156.31 645.496 2178.06V2178.06C631.662 2201.13 597.176 2197.51 588.44 2172.07V2172.07C580.2 2148.07 548.485 2143.05 533.233 2163.32V2163.32C517.063 2184.82 483.145 2177.61 477.116 2151.4V2151.4C471.43 2126.67 440.414 2118.36 423.126 2136.93V2136.93C404.797 2156.62 371.819 2145.9 368.563 2119.2V2119.2C365.493 2094.02 335.515 2082.51 316.381 2099.17V2099.17C296.095 2116.83 264.417 2102.73 263.97 2075.83V2075.83C263.549 2050.47 234.938 2035.89 214.168 2050.46V2050.46C192.146 2065.91 162.116 2048.57 164.483 2021.77V2021.77C166.716 1996.5 139.786 1979.01 117.606 1991.33V1991.33C94.0902 2004.39 66.0373 1984.01 71.1921 1957.61V1957.61C76.0541 1932.71 51.0995 1912.5 27.7536 1922.43V1922.43C3.0015 1932.96 -22.7672 1909.76 -14.881 1884.05V1884.05C-7.44283 1859.79 -30.1484 1837.08 -54.4047 1844.52V1844.52C-80.122 1852.41 -103.324 1826.64 -92.7931 1801.89V1801.89C-82.8602 1778.54 -103.068 1753.59 -127.969 1758.45V1758.45C-154.37 1763.6 -174.751 1735.55 -161.69 1712.03V1712.03C-149.372 1689.85 -166.86 1662.92 -192.133 1665.16V1665.16C-218.928 1667.52 -236.266 1637.49 -220.818 1615.47V1615.47C-206.249 1594.7 -220.826 1566.09 -246.194 1565.67V1565.67C-273.09 1565.22 -287.193 1533.55 -269.529 1513.26V1513.26C-252.868 1494.13 -264.375 1464.15 -289.56 1461.08V1461.08C-316.261 1457.82 -326.977 1424.84 -307.288 1406.51V1406.51C-288.718 1389.23 -297.029 1358.21 -321.755 1352.52V1352.52C-347.97 1346.49 -355.179 1312.58 -333.683 1296.41V1296.41C-313.408 1281.16 -318.431 1249.44 -342.427 1241.2V1241.2C-367.868 1232.46 -371.493 1197.98 -348.424 1184.14V1184.14C-326.665 1171.1 -328.346 1139.03 -351.349 1128.33V1128.33C-375.738 1116.98 -375.738 1082.3 -351.349 1070.96V1070.96C-328.346 1060.25 -326.665 1028.19 -348.424 1015.14V1015.14C-371.493 1001.3 -367.868 966.817 -342.427 958.08V958.08C-318.431 949.841 -313.408 918.125 -333.683 902.874V902.874C-355.179 886.703 -347.97 852.786 -321.755 846.757V846.757C-297.029 841.07 -288.718 810.054 -307.288 792.767V792.767C-326.977 774.438 -316.261 741.46 -289.56 738.204V738.204C-264.375 735.133 -252.868 705.155 -269.529 686.021V686.021C-287.193 665.735 -273.09 634.058 -246.194 633.611V633.611C-220.826 633.189 -206.249 604.579 -220.818 583.808V583.808C-236.266 561.786 -218.928 531.757 -192.133 534.124V534.124C-166.86 536.356 -149.372 509.426 -161.69 487.246V487.246C-174.751 463.731 -154.37 435.678 -127.969 440.833V440.833C-103.068 445.694 -82.8602 420.74 -92.7931 397.394V397.394C-103.324 372.642 -80.1221 346.873 -54.4047 354.759V354.759C-30.1484 362.198 -7.44283 339.492 -14.881 315.236V315.236C-22.7672 289.518 3.00148 266.316 27.7536 276.847V276.847C51.0995 286.78 76.0541 266.572 71.1921 241.671V241.671C66.0373 215.271 94.0902 194.889 117.606 207.95V207.95C139.786 220.269 166.716 202.78 164.483 177.507V177.507C162.116 150.712 192.146 133.375 214.168 148.822V148.822C234.938 163.392 263.549 148.814 263.97 123.446V123.446C264.417 96.5507 296.095 82.4469 316.381 100.112V100.112C335.515 116.773 365.493 105.265 368.563 80.0806V80.0806C371.819 53.379 404.797 42.6638 423.126 62.3522V62.3522C440.414 80.9219 471.43 72.6111 477.116 47.8855V47.8855C483.145 21.6705 517.063 14.4611 533.233 35.9575V35.9575C548.485 56.2326 580.2 51.2094 588.44 27.2136V27.2136C597.176 1.77241 631.662 -1.85215 645.496 21.2168V21.2168C658.545 42.975 690.612 41.2945 701.315 18.2914V18.2914Z" fill="#418162"/>
</svg>
