<svg width="75" height="78" viewBox="0 0 75 78" fill="none" xmlns="http://www.w3.org/2000/svg">
<path d="M27.6471 66.1885C10.7 71.6566 10.7 56.4241 4 54.4713M51.2941 74V60.3299C51.2941 56.4241 51.6882 54.8618 49.3235 52.5184C60.3588 51.3467 71 47.0504 71 29.0839C70.9952 24.4164 69.1577 19.934 65.8765 16.5855C67.4154 12.5312 67.2737 8.03831 65.4824 4.08715C65.4824 4.08715 61.1471 2.91543 51.6882 9.16462C43.6768 7.09687 35.2644 7.09687 27.2529 9.16462C17.7941 2.91543 13.4588 4.08715 13.4588 4.08715C11.6675 8.03831 11.5258 12.5312 13.0647 16.5855C9.78349 19.934 7.94597 24.4164 7.94118 29.0839C7.94118 47.0504 18.5824 51.3467 29.6176 52.5184C27.2529 54.8618 27.2529 57.2053 27.6471 60.3299V74" stroke="#DCD7C9" stroke-width="7" stroke-linecap="round" stroke-linejoin="round"/>
</svg>
