<svg width="78" height="78" viewBox="0 0 78 78" fill="none" xmlns="http://www.w3.org/2000/svg">
<path d="M23.4444 35.1111V54.5556M23.4444 23.4444V23.4833M39 54.5556V35.1111M54.5556 54.5556V42.8889C54.5556 40.8261 53.7361 38.8478 52.2775 37.3892C50.8189 35.9306 48.8406 35.1111 46.7778 35.1111C44.715 35.1111 42.7367 35.9306 41.2781 37.3892C39.8194 38.8478 39 40.8261 39 42.8889M4 19.5556C4 15.43 5.63888 11.4733 8.55612 8.55612C11.4733 5.63888 15.43 4 19.5556 4H58.4444C62.57 4 66.5266 5.63888 69.4439 8.55612C72.3611 11.4733 74 15.43 74 19.5556V58.4444C74 62.57 72.3611 66.5266 69.4439 69.4439C66.5266 72.3611 62.57 74 58.4444 74H19.5556C15.43 74 11.4733 72.3611 8.55612 69.4439C5.63888 66.5266 4 62.57 4 58.4444V19.5556Z" stroke="#DCD7C9" stroke-width="7" stroke-linecap="round" stroke-linejoin="round"/>
</svg>
